# xmcd
# 
# Track frame offsets:
#     150
#     17420
#     33106
#     60632
#     78734
#     101899
#     115982
#     133275
#     150840
#     166145
#     181274
#     198455
#     216185
#     228457
#     255680
#     280039
# 
# Disc length: 4195
# 
# Revision: 1
# Processed by: cddbd v1.5.2PL0 Copyright (c) Steve Scherf et al.
# Submitted via: fre:ac v1.0.31
# 
DISCID=d5106110
DTITLE=Various Artist - StoMo's Artist Collection: Blues and Boogie Vol. 8
DYEAR=2015
DGENRE=Blues
TTITLE0=Crazy Hambones - Moon
TTITLE1=Fast Eddy's Blue Band - Slow Down
TTITLE2=Boogie Boys - Where´d You Stay Last Night
TTITLE3=Jan Hirtes Blue Ribbon - Sweet Sixteen
TTITLE4=Steve 'Big Man`Clayton - I'm In Love With You Baby
TTITLE5=Nico Brina - Charlie's Boogie
TTITLE6=Mick Pini - Jumping Blues
TTITLE7=Fast Eddy's Blue Band - Too Much Time To Think
TTITLE8=Little Willi Littlefield - Roomin House Boogie
TTITLE9=Klaus Marquardt's Violin Experience - Man Of Many Words
TTITLE10=Dynamite Daze - A Picture Of Downtown Kingston
TTITLE11=PhrasePig - Heit Morga
TTITLE12=Back On The Road - You're Stealing My Time
TTITLE13=Boogie Boys - Fortepian i Ja
TTITLE14=Soundsville - Pretzel Logic
TTITLE15=Crazy Hambones - Have A Good Time
EXTD=
EXTT0=
EXTT1=
EXTT2=
EXTT3=
EXTT4=
EXTT5=
EXTT6=
EXTT7=
EXTT8=
EXTT9=
EXTT10=
EXTT11=
EXTT12=
EXTT13=
EXTT14=
EXTT15=
PLAYORDER=
